# xmcd
#
# Track frame offsets:
#	150
#	24731
#	39463
#	61843
#	89311
#	109425
#	132773
#	148081
#	166835
#	182977
#	194202
#	212846
#	240544
#	274772
#	319330
#
# Disc length: 4420 seconds
#
# Revision: 0
# Processed by: cddbd v1.5.2PL0 Copyright (c) Steve Scherf et al.
# Submitted via: SynApp - FreeCDDB Version: 2.2
#
DISCID=e511420f
DTITLE=01 - Vom Zauber der Züge
DYEAR=0000
DGENRE=Blues
TTITLE0=Thundertrain
TTITLE1=02 - Railway Nocturne w- Sippie Wallace
TTITLE2=Axel Zwingenberger - Steel Dragon
TTITLE3=04 - The Fives
TTITLE4=05 - Dream Train
TTITLE5=06 - Sante Fe Blues
TTITLE6=07 - 44 Blues
TTITLE7=08 - Cow Cow Blues
TTITLE8=09 - Ooeeh Train
TTITLE9=10 - Low Down Dog
TTITLE10=11 - Chicago Flyer
TTITLE11=12 - Honky Tonk Train Blues
TTITLE12=Axel Zwingenberger - Big Black 310
TTITLE13=14 - Running Late
TTITLE14=Axel Zwingenberger with Sippie - How Long Blues
EXTD=
EXTT0=
EXTT1=
EXTT2=
EXTT3=
EXTT4=
EXTT5=
EXTT6=
EXTT7=
EXTT8=
EXTT9=
EXTT10=
EXTT11=
EXTT12=
EXTT13=
EXTT14=
PLAYORDER=
